<?xml version="1.0" standalone="no"?>
<!DOCTYPE svg PUBLIC "-//W3C//DTD SVG 20010904//EN"
 "http://www.w3.org/TR/2001/REC-SVG-20010904/DTD/svg10.dtd">
<svg version="1.0" xmlns="http://www.w3.org/2000/svg"
 width="20742.000000pt" height="8059.000000pt" viewBox="0 0 20742.000000 8059.000000"
 preserveAspectRatio="xMidYMid meet">

<g transform="translate(0.000000,8059.000000) scale(0.100000,-0.100000)"
fill="#000000" stroke="none">
<path d="M130780 67379 c-286 -34 -628 -136 -1020 -304 -165 -70 -748 -337
-1040 -475 -3501 -1659 -7998 -3601 -12595 -5440 -12860 -5144 -26921 -9696
-33897 -10974 -188 -35 -281 -57 -394 -96 -81 -28 -153 -55 -161 -61 -21 -18
-15 -36 20 -63 24 -18 1436 -464 5362 -1691 4223 -1319 5358 -1678 5467 -1725
173 -75 232 -90 353 -90 197 0 366 50 1110 330 3847 1447 9620 3758 14351
5745 8446 3549 15108 6650 19878 9256 421 231 582 306 735 345 117 30 127 25
87 -51 -32 -62 -150 -179 -241 -240 -155 -104 -2431 -1822 -4270 -3224 -14549
-11090 -27441 -21674 -36690 -30120 -6428 -5870 -11131 -10691 -14378 -14735
-519 -647 -517 -662 88 -731 401 -45 8761 -1054 8864 -1070 128 -19 188 -19
265 1 34 8 212 90 401 184 365 181 915 446 1510 727 7110 3367 16168 6914
26465 10364 677 227 985 322 1743 538 1893 540 3454 913 4506 1076 l164 26 74
-27 c50 -18 70 -30 64 -38 -36 -47 -4163 -5790 -4167 -5799 -3 -8 30 -20 95
-35 l99 -23 10943 4492 c6019 2470 25499 10465 43289 17766 17790 7301 32389
13293 32443 13315 53 22 97 43 97 47 -1 3 -18 25 -38 48 l-37 42 -33635
-10463 c-18499 -5755 -33636 -10460 -33638 -10457 -1 4 436 1001 971 2217 536
1215 973 2210 973 2211 -2 4 -1038 -327 -1326 -423 -2444 -821 -5807 -2091
-10315 -3894 -423 -169 -802 -317 -841 -329 -39 -11 -286 -95 -550 -185 -6024
-2060 -20358 -7839 -26229 -10574 -546 -254 -814 -383 -1368 -659 -301 -150
-556 -273 -567 -273 -32 0 -25 31 31 142 153 304 995 1459 1807 2478 2898
3635 7529 8503 13022 13690 8451 7980 18650 16481 29755 24801 1455 1090 2777
2069 3134 2319 247 174 341 251 341 279 0 32 -51 42 -315 67 -142 13 -280 26
-305 30 -25 3 -2277 395 -5005 871 l-4960 865 -225 3 c-124 2 -259 -1 -300 -6z"/>
<path d="M55745 48618 c-58 -22 -117 -71 -178 -148 -152 -192 -736 -1215
-1202 -2105 -188 -359 -825 -1635 -1025 -2050 -1790 -3732 -3848 -8622 -5685
-13507 -134 -356 -247 -654 -252 -662 -4 -8 -1711 -1763 -3793 -3902 -2082
-2138 -3842 -3951 -3911 -4028 -128 -144 -185 -196 -214 -196 -23 0 -14 45 30
165 19 50 124 338 233 640 1024 2819 2148 5716 3394 8750 126 308 255 616 285
685 83 185 76 222 -54 281 -44 20 -863 225 -2675 670 -1437 352 -2740 672
-2896 710 -322 80 -337 81 -395 21 -78 -82 -75 -75 -559 -1397 -2159 -5909
-3536 -10277 -4484 -14230 -61 -254 -76 -375 -54 -439 19 -58 81 -102 190
-137 52 -16 1123 -252 2380 -524 1257 -272 2355 -510 2440 -529 85 -20 178
-36 206 -36 75 0 142 24 204 73 34 27 1648 1892 4180 4829 2269 2632 4127
4784 4128 4783 2 -2 -78 -243 -177 -537 -347 -1021 -680 -2055 -965 -2988
-286 -939 -596 -2033 -596 -2104 0 -70 53 -96 280 -135 220 -38 4805 -1078
4848 -1100 80 -41 142 -19 181 65 41 86 131 315 257 653 69 185 166 439 216
565 l91 229 66 -6 c36 -3 277 -29 535 -57 1361 -147 2626 -263 3151 -290 116
-6 274 -16 351 -22 164 -13 262 -7 429 27 1204 243 2536 1000 3940 2240 501
442 1098 1037 1606 1601 1894 2098 3714 4884 4894 7488 62 138 126 281 142
319 l28 67 1715 1043 c943 574 1716 1042 1718 1041 2 -1 -52 -80 -119 -176
-1177 -1664 -1999 -3309 -2293 -4588 -290 -1263 -136 -2196 475 -2864 186
-204 515 -429 819 -560 191 -82 3832 -1391 3935 -1414 175 -40 253 -47 525
-47 351 0 601 34 969 131 164 43 713 220 996 321 1000 356 2093 863 3270 1516
3112 1725 6790 4474 10670 7972 2856 2575 5721 5500 7581 7740 338 407 724
895 707 895 -4 0 -468 -107 -1030 -238 l-1022 -238 -122 -144 c-845 -999
-2036 -2215 -3390 -3461 -3995 -3676 -9535 -7790 -13094 -9723 -495 -269 -970
-501 -1650 -803 -899 -401 -1536 -631 -1978 -714 -156 -29 -426 -37 -520 -15
-145 34 -254 112 -302 219 -50 109 -69 354 -45 572 45 404 187 907 415 1475
73 180 111 269 248 573 28 62 32 67 56 63 14 -3 324 -55 689 -116 470 -78 687
-110 745 -110 103 0 244 31 657 144 1877 510 3564 1192 5043 2038 2531 1448
4530 3405 6060 5936 725 1198 1359 2554 1885 4032 45 124 99 264 121 310 23
46 41 98 41 115 0 41 -31 70 -101 94 -55 20 -4826 985 -5021 1016 -119 19
-155 13 -176 -28 -20 -39 -530 -1383 -547 -1441 -24 -82 -42 -100 -101 -98
-27 0 -83 12 -124 25 -41 13 -608 234 -1260 489 -652 256 -1241 485 -1310 508
-169 58 -259 64 -391 26 -114 -33 -322 -112 -579 -222 -1986 -842 -4212 -2363
-6410 -4379 -627 -575 -1442 -1391 -2015 -2015 -93 -102 -178 -191 -189 -199
-10 -8 -1084 -526 -2385 -1152 -1857 -893 -2368 -1135 -2374 -1124 -18 33 33
372 73 491 38 113 54 318 55 709 0 241 -4 390 -13 450 -46 325 -126 568 -247
750 -54 81 -156 188 -230 240 -78 56 -1299 649 -1972 958 -1178 543 -2107 891
-2613 981 -256 46 -712 47 -920 3 -198 -42 -336 -109 -418 -202 -37 -43 -249
-396 -770 -1284 -504 -860 -959 -1648 -2342 -4056 -593 -1033 -1202 -2085
-1515 -2620 -103 -176 -207 -359 -231 -406 -79 -156 -83 -223 -16 -280 20 -17
411 -217 869 -445 l831 -413 114 -22 c129 -24 246 -26 333 -5 33 8 62 13 64
10 18 -18 -481 -1058 -720 -1499 -1380 -2557 -3143 -4492 -4994 -5483 -176
-95 -440 -220 -573 -273 -89 -36 -208 -51 -217 -28 -3 8 51 163 121 344 69
182 353 929 631 1660 1505 3965 2174 5685 2968 7635 2338 5743 4457 10052
6773 13770 168 270 549 866 652 1020 126 189 154 261 108 280 -13 5 -1305 338
-2873 740 -1567 403 -2913 752 -2990 776 -149 48 -248 62 -300 42z m26395
-9286 c0 -15 -128 -341 -197 -502 -416 -974 -1030 -1942 -1789 -2825 -414
-481 -958 -1019 -1455 -1441 -1238 -1050 -2646 -1860 -4076 -2345 -95 -32
-173 -54 -173 -49 0 29 327 503 575 835 1689 2259 4459 4772 6765 6137 359
213 350 208 350 190z"/>
<path d="M42820 45363 c-29 -11 -64 -36 -99 -72 -54 -56 -55 -57 -1388 -3081
-733 -1664 -1344 -3056 -1357 -3095 -24 -68 -29 -100 -27 -158 2 -65 87 -106
341 -166 69 -16 1250 -314 2625 -661 1375 -347 2539 -640 2587 -651 191 -42
214 -30 335 181 95 166 2831 5595 2917 5789 84 188 110 283 97 343 -30 129
-152 199 -506 289 -254 64 -5061 1244 -5195 1275 -124 28 -260 31 -330 7z"/>
<path d="M34110 43557 c-108 -26 -152 -65 -243 -218 -31 -52 -3361 -6479
-7401 -14284 -4040 -7805 -7354 -14204 -7365 -14220 -32 -48 -122 -135 -168
-161 -59 -35 -98 -45 -134 -32 -45 16 -64 60 -63 148 1 41 149 4555 329 10029
268 8123 326 9965 317 10010 -22 105 -92 158 -305 230 -67 22 -2299 643 -4960
1380 l-4837 1339 -83 -19 c-101 -24 -144 -49 -163 -94 -13 -32 97 -1012 1505
-13362 922 -8091 1523 -13401 1530 -13513 12 -211 34 -318 86 -425 85 -172
244 -302 483 -396 71 -27 960 -261 2935 -770 3694 -952 3504 -906 3722 -916
223 -11 280 30 431 312 56 103 4067 6521 10235 16375 5579 8913 10158 16234
10176 16269 65 125 38 239 -80 346 -127 115 -89 101 -2827 1036 -1389 474
-2577 879 -2641 900 -110 36 -126 39 -270 44 -107 3 -171 1 -209 -8z"/>
</g>
</svg>
